<svg xmlns="http://www.w3.org/2000/svg" width="64" height="64" viewBox="0 0 64 64" fill="none">
  <defs>
    <linearGradient id="td" x1="14" y1="12" x2="50" y2="54" gradientUnits="userSpaceOnUse">
      <stop stop-color="#A55BD6"/>
      <stop offset="1" stop-color="#5B2ED6"/>
    </linearGradient>
  </defs>
  <g stroke="url(#td)" stroke-width="3.4" stroke-linecap="round" stroke-linejoin="round" fill="none">
    <!-- left page -->
    <path d="M32 21 C25.5 16.5 18.5 15.5 11 16.8 L11 45 C18.5 43.7 25.5 44.7 32 49"/>
    <!-- right page -->
    <path d="M32 21 C38.5 16.5 45.5 15.5 53 16.8 L53 45 C45.5 43.7 38.5 44.7 32 49"/>
    <!-- spine trace down to center node -->
    <path d="M32 24 L32 37.5"/>
    <!-- branch up-right to top node -->
    <path d="M32 26.5 L40.5 21.5"/>
    <!-- bottom-left trace -->
    <path d="M25 46.5 L21 49.5"/>
    <!-- bottom-right trace -->
    <path d="M39 46.5 L43 49.5"/>
  </g>
  <!-- circuit nodes -->
  <g fill="url(#td)">
    <circle cx="32" cy="38.5" r="3.4"/>
    <circle cx="42" cy="20.6" r="3"/>
    <circle cx="20" cy="50.4" r="3"/>
    <circle cx="44" cy="50.4" r="3"/>
  </g>
</svg>
